<svg width="72" height="72" viewBox="0 0 72 72" fill="none" xmlns="http://www.w3.org/2000/svg">
<g clip-path="url(#clip0_43_982)">
<path d="M0 36C0 16.1178 16.1178 0 36 0C55.8823 0 72 16.1178 72 36V66.6667C72 69.6122 69.6122 72 66.6667 72H36C16.1178 72 0 55.8823 0 36Z" fill="#027BFF"/>
<path d="M37.7812 22.7812C37.7812 21.796 36.9853 21 36 21C35.0147 21 34.2188 21.796 34.2188 22.7812V26.3438H28.875C25.9248 26.3438 23.5312 28.7373 23.5312 31.6875V44.1562C23.5312 47.1064 25.9248 49.5 28.875 49.5H43.125C46.0752 49.5 48.4688 47.1064 48.4688 44.1562V31.6875C48.4688 28.7373 46.0752 26.3438 43.125 26.3438H37.7812V22.7812ZM27.0938 43.2656C27.0938 42.5253 27.6894 41.9297 28.4297 41.9297H30.2109C30.9513 41.9297 31.5469 42.5253 31.5469 43.2656C31.5469 44.006 30.9513 44.6016 30.2109 44.6016H28.4297C27.6894 44.6016 27.0938 44.006 27.0938 43.2656ZM33.7734 43.2656C33.7734 42.5253 34.369 41.9297 35.1094 41.9297H36.8906C37.631 41.9297 38.2266 42.5253 38.2266 43.2656C38.2266 44.006 37.631 44.6016 36.8906 44.6016H35.1094C34.369 44.6016 33.7734 44.006 33.7734 43.2656ZM40.4531 43.2656C40.4531 42.5253 41.0487 41.9297 41.7891 41.9297H43.5703C44.3106 41.9297 44.9062 42.5253 44.9062 43.2656C44.9062 44.006 44.3106 44.6016 43.5703 44.6016H41.7891C41.0487 44.6016 40.4531 44.006 40.4531 43.2656ZM30.6562 32.5781C31.0071 32.5781 31.3546 32.6472 31.6787 32.7815C32.0029 32.9158 32.2974 33.1126 32.5456 33.3607C32.7937 33.6088 32.9905 33.9034 33.1247 34.2275C33.259 34.5517 33.3281 34.8991 33.3281 35.25C33.3281 35.6009 33.259 35.9483 33.1247 36.2725C32.9905 36.5966 32.7937 36.8912 32.5456 37.1393C32.2974 37.3874 32.0029 37.5842 31.6787 37.7185C31.3546 37.8528 31.0071 37.9219 30.6562 37.9219C30.3054 37.9219 29.9579 37.8528 29.6338 37.7185C29.3096 37.5842 29.0151 37.3874 28.7669 37.1393C28.5188 36.8912 28.322 36.5966 28.1878 36.2725C28.0535 35.9483 27.9844 35.6009 27.9844 35.25C27.9844 34.8991 28.0535 34.5517 28.1878 34.2275C28.322 33.9034 28.5188 33.6088 28.7669 33.3607C29.0151 33.1126 29.3096 32.9158 29.6338 32.7815C29.9579 32.6472 30.3054 32.5781 30.6562 32.5781ZM38.6719 35.25C38.6719 34.5414 38.9534 33.8618 39.4544 33.3607C39.9555 32.8596 40.6351 32.5781 41.3438 32.5781C42.0524 32.5781 42.732 32.8596 43.2331 33.3607C43.7341 33.8618 44.0156 34.5414 44.0156 35.25C44.0156 35.9586 43.7341 36.6382 43.2331 37.1393C42.732 37.6404 42.0524 37.9219 41.3438 37.9219C40.6351 37.9219 39.9555 37.6404 39.4544 37.1393C38.9534 36.6382 38.6719 35.9586 38.6719 35.25ZM21.75 35.25C21.75 34.2647 20.954 33.4688 19.9688 33.4688C18.9835 33.4688 18.1875 34.2647 18.1875 35.25V40.5938C18.1875 41.579 18.9835 42.375 19.9688 42.375C20.954 42.375 21.75 41.579 21.75 40.5938V35.25ZM52.0312 33.4688C51.046 33.4688 50.25 34.2647 50.25 35.25V40.5938C50.25 41.579 51.046 42.375 52.0312 42.375C53.0165 42.375 53.8125 41.579 53.8125 40.5938V35.25C53.8125 34.2647 53.0165 33.4688 52.0312 33.4688Z" fill="white"/>
</g>
<defs>
<clipPath id="clip0_43_982">
<path d="M0 36C0 16.1178 16.1178 0 36 0C55.8823 0 72 16.1178 72 36V66.6667C72 69.6122 69.6122 72 66.6667 72H36C16.1178 72 0 55.8823 0 36Z" fill="white"/>
</clipPath>
</defs>
</svg>
