<svg width="48" height="48" viewBox="0 0 48 48" fill="none" xmlns="http://www.w3.org/2000/svg">
<g clip-path="url(#clip0_51_181)">
<path d="M0 24C0 10.7452 10.7452 0 24 0C37.2548 0 48 10.7452 48 24C48 37.2548 37.2548 48 24 48C10.7452 48 0 37.2548 0 24Z" fill="#027BFF"/>
<path d="M25.1875 15.188C25.1875 14.5312 24.6568 14.0005 24 14.0005C23.3432 14.0005 22.8125 14.5312 22.8125 15.188V17.563H19.25C17.2832 17.563 15.6875 19.1587 15.6875 21.1255V29.438C15.6875 31.4048 17.2832 33.0005 19.25 33.0005H28.75C30.7168 33.0005 32.3125 31.4048 32.3125 29.438V21.1255C32.3125 19.1587 30.7168 17.563 28.75 17.563H25.1875V15.188ZM18.0625 28.8442C18.0625 28.3507 18.4596 27.9536 18.9531 27.9536H20.1406C20.6342 27.9536 21.0312 28.3507 21.0312 28.8442C21.0312 29.3378 20.6342 29.7349 20.1406 29.7349H18.9531C18.4596 29.7349 18.0625 29.3378 18.0625 28.8442ZM22.5156 28.8442C22.5156 28.3507 22.9127 27.9536 23.4062 27.9536H24.5938C25.0873 27.9536 25.4844 28.3507 25.4844 28.8442C25.4844 29.3378 25.0873 29.7349 24.5938 29.7349H23.4062C22.9127 29.7349 22.5156 29.3378 22.5156 28.8442ZM26.9688 28.8442C26.9688 28.3507 27.3658 27.9536 27.8594 27.9536H29.0469C29.5404 27.9536 29.9375 28.3507 29.9375 28.8442C29.9375 29.3378 29.5404 29.7349 29.0469 29.7349H27.8594C27.3658 29.7349 26.9688 29.3378 26.9688 28.8442ZM20.4375 21.7192C20.6714 21.7192 20.903 21.7653 21.1192 21.8548C21.3353 21.9443 21.5316 22.0755 21.697 22.241C21.8624 22.4064 21.9936 22.6027 22.0832 22.8188C22.1727 23.0349 22.2188 23.2666 22.2188 23.5005C22.2188 23.7344 22.1727 23.966 22.0832 24.1821C21.9936 24.3983 21.8624 24.5946 21.697 24.76C21.5316 24.9254 21.3353 25.0566 21.1192 25.1461C20.903 25.2357 20.6714 25.2817 20.4375 25.2817C20.2036 25.2817 19.972 25.2357 19.7558 25.1461C19.5397 25.0566 19.3434 24.9254 19.178 24.76C19.0126 24.5946 18.8814 24.3983 18.7918 24.1821C18.7023 23.966 18.6562 23.7344 18.6562 23.5005C18.6562 23.2666 18.7023 23.0349 18.7918 22.8188C18.8814 22.6027 19.0126 22.4064 19.178 22.241C19.3434 22.0755 19.5397 21.9443 19.7558 21.8548C19.972 21.7653 20.2036 21.7192 20.4375 21.7192ZM25.7812 23.5005C25.7812 23.0281 25.9689 22.575 26.303 22.241C26.637 21.9069 27.0901 21.7192 27.5625 21.7192C28.0349 21.7192 28.488 21.9069 28.822 22.241C29.1561 22.575 29.3438 23.0281 29.3438 23.5005C29.3437 23.9729 29.1561 24.426 28.822 24.76C28.488 25.0941 28.0349 25.2817 27.5625 25.2817C27.0901 25.2817 26.637 25.0941 26.303 24.76C25.9689 24.426 25.7812 23.9729 25.7812 23.5005ZM14.5 23.5005C14.5 22.8437 13.9693 22.313 13.3125 22.313C12.6557 22.313 12.125 22.8437 12.125 23.5005V27.063C12.125 27.7198 12.6557 28.2505 13.3125 28.2505C13.9693 28.2505 14.5 27.7198 14.5 27.063V23.5005ZM34.6875 22.313C34.0307 22.313 33.5 22.8437 33.5 23.5005V27.063C33.5 27.7198 34.0307 28.2505 34.6875 28.2505C35.3443 28.2505 35.875 27.7198 35.875 27.063V23.5005C35.875 22.8437 35.3443 22.313 34.6875 22.313Z" fill="white"/>
</g>
<defs>
<clipPath id="clip0_51_181">
<path d="M0 24C0 10.7452 10.7452 0 24 0C37.2548 0 48 10.7452 48 24C48 37.2548 37.2548 48 24 48C10.7452 48 0 37.2548 0 24Z" fill="white"/>
</clipPath>
</defs>
</svg>
