<svg width="48" height="48" viewBox="0 0 48 48" fill="none" xmlns="http://www.w3.org/2000/svg">
<rect width="48" height="48" rx="8" fill="#027BFF"/>
<path d="M34.4508 12.0675C34.8739 11.9163 35.3402 12.0243 35.6597 12.3395C35.9792 12.6547 36.0828 13.1253 35.9317 13.5484L28.2466 35.0026C28.0308 35.6028 27.4652 36 26.8305 36C26.2174 36 25.6648 35.6287 25.436 35.0631L22.6641 28.2412C22.4699 27.7663 22.5562 27.2223 22.8887 26.8337L26.9687 21.9807C27.1888 21.7173 27.1716 21.3331 26.9298 21.0913C26.688 20.8495 26.2995 20.8322 26.0404 21.0524L21.1876 25.1239C20.7947 25.4521 20.255 25.5384 19.7801 25.3484L12.9369 22.5636C12.3713 22.3347 12 21.7821 12 21.169C12 20.5343 12.3972 19.9687 12.9973 19.7528L34.4508 12.0675Z" fill="white"/>
</svg>
