<svg width="346" height="78" viewBox="0 0 346 78" fill="none" xmlns="http://www.w3.org/2000/svg">
<path d="M57.2378 0.129028H55.6658V77.3386H57.2378V0.129028Z" fill="#9FFFFF"/>
<path d="M50.6145 0.129028H49.0425V77.3386H50.6145V0.129028Z" fill="#9FFFFF"/>
<path d="M43.9653 0.128906H42.3933V77.3385H43.9653V0.128906Z" fill="#9FFFFF"/>
<path d="M57.2378 0.129028H55.6658V77.3386H57.2378V0.129028Z" fill="#3BC4C4"/>
<path d="M50.6145 0.129028H49.0425V77.3386H50.6145V0.129028Z" fill="#3BC4C4"/>
<path d="M43.9653 0.128906H42.3933V77.3385H43.9653V0.128906Z" fill="#3BC4C4"/>
<path d="M141.276 0.129028H139.704V77.3386H141.276V0.129028Z" fill="#9FFFFF"/>
<path d="M134.653 0.129028H133.081V77.3386H134.653V0.129028Z" fill="#9FFFFF"/>
<path d="M128.004 0.128906H126.432V77.3385H128.004V0.128906Z" fill="#9FFFFF"/>
<path d="M141.276 0.129028H139.704V77.3386H141.276V0.129028Z" fill="#3BC4C4"/>
<path d="M134.653 0.129028H133.081V77.3386H134.653V0.129028Z" fill="#3BC4C4"/>
<path d="M128.004 0.128906H126.432V77.3385H128.004V0.128906Z" fill="#3BC4C4"/>
<path d="M200.241 75.6376H173.387V77.2096H200.241V75.6376Z" fill="#9FFFFF"/>
<path d="M200.215 69.401H173.362V70.973H200.215V69.401Z" fill="#9FFFFF"/>
<path d="M200.241 63.1387H173.387V64.7107H200.241V63.1387Z" fill="#9FFFFF"/>
<path d="M200.241 75.6376H173.387V77.2096H200.241V75.6376Z" fill="#3BC4C4"/>
<path d="M200.215 69.401H173.362V70.973H200.215V69.401Z" fill="#3BC4C4"/>
<path d="M200.241 63.1387H173.387V64.7107H200.241V63.1387Z" fill="#3BC4C4"/>
<path d="M283.867 44.223H254.307V45.795H283.867V44.223Z" fill="#9FFFFF"/>
<path d="M283.841 37.9607H254.281V39.5327H283.841V37.9607Z" fill="#9FFFFF"/>
<path d="M283.867 31.7241H254.307V33.2961H283.867V31.7241Z" fill="#9FFFFF"/>
<path d="M283.867 44.223H254.307V45.795H283.867V44.223Z" fill="#3BC4C4"/>
<path d="M283.841 37.9607H254.281V39.5327H283.841V37.9607Z" fill="#3BC4C4"/>
<path d="M283.867 31.7241H254.307V33.2961H283.867V31.7241Z" fill="#3BC4C4"/>
<path d="M283.867 12.6279H254.307V14.2H283.867V12.6279Z" fill="#9FFFFF"/>
<path d="M283.841 6.39136H254.281V7.96338H283.841V6.39136Z" fill="#9FFFFF"/>
<path d="M283.867 0.129028H254.307V1.70105H283.867V0.129028Z" fill="#9FFFFF"/>
<path d="M283.867 12.6279H254.307V14.2H283.867V12.6279Z" fill="#3BC4C4"/>
<path d="M283.841 6.39136H254.281V7.96338H283.841V6.39136Z" fill="#3BC4C4"/>
<path d="M283.867 0.129028H254.307V1.70105H283.867V0.129028Z" fill="#3BC4C4"/>
<path d="M345.949 24.8175H296.391V26.3895H345.949V24.8175Z" fill="#9FFFFF"/>
<path d="M346 18.7097H296.442V20.2817H346V18.7097Z" fill="#9FFFFF"/>
<path d="M345.949 24.8175H296.391V26.3895H345.949V24.8175Z" fill="#3BC4C4"/>
<path d="M346 18.7097H296.442V20.2817H346V18.7097Z" fill="#3BC4C4"/>
<path d="M345.949 56.6958H296.391V58.2678H345.949V56.6958Z" fill="#9FFFFF"/>
<path d="M346 50.5881H296.442V52.1602H346V50.5881Z" fill="#9FFFFF"/>
<path d="M345.949 56.6958H296.391V58.2678H345.949V56.6958Z" fill="#3BC4C4"/>
<path d="M346 50.5881H296.442V52.1602H346V50.5881Z" fill="#3BC4C4"/>
<path d="M14.9987 77.3385H0L42.2385 0.128906H57.2371L14.9987 77.3385Z" fill="url(#paint0_linear_2_502)"/>
<path d="M149.316 46.9804V58.9123H93.9089L101.408 45.2537L126.174 0.128906H141.173L116.407 45.2537L115.453 46.9804H149.316Z" fill="url(#paint1_linear_2_502)"/>
<path d="M86.6161 0.128906H72.7256V77.3385H86.6161V0.128906Z" fill="url(#paint2_linear_2_502)"/>
<path d="M224.387 0.128906H210.496V77.3385H224.387V0.128906Z" fill="url(#paint3_linear_2_502)"/>
<path d="M254.307 0.128906H240.417V77.3385H254.307V0.128906Z" fill="url(#paint4_linear_2_502)"/>
<path d="M173.386 0.128906H159.496V77.3385H173.386V0.128906Z" fill="url(#paint5_linear_2_502)"/>
<path d="M346 0L296.391 0V13.9163H346V0Z" fill="url(#paint6_linear_2_502)"/>
<path d="M346 63.3964H296.391V77.3126H346V63.3964Z" fill="url(#paint7_linear_2_502)"/>
<path d="M322.033 31.5436H296.391V45.4599H322.033V31.5436Z" fill="url(#paint8_linear_2_502)"/>
<defs>
<linearGradient id="paint0_linear_2_502" x1="28.6212" y1="77.3308" x2="28.6212" y2="0.123752" gradientUnits="userSpaceOnUse">
<stop stop-color="#3881A2"/>
<stop offset="1" stop-color="#50ACB7"/>
</linearGradient>
<linearGradient id="paint1_linear_2_502" x1="121.618" y1="58.9149" x2="121.618" y2="0.126331" gradientUnits="userSpaceOnUse">
<stop stop-color="#3881A2"/>
<stop offset="1" stop-color="#50ACB7"/>
</linearGradient>
<linearGradient id="paint2_linear_2_502" x1="79.6786" y1="77.3308" x2="79.6786" y2="0.123752" gradientUnits="userSpaceOnUse">
<stop stop-color="#3881A2"/>
<stop offset="1" stop-color="#50ACB7"/>
</linearGradient>
<linearGradient id="paint3_linear_2_502" x1="217.431" y1="77.3308" x2="217.431" y2="0.123752" gradientUnits="userSpaceOnUse">
<stop stop-color="#3881A2"/>
<stop offset="1" stop-color="#50ACB7"/>
</linearGradient>
<linearGradient id="paint4_linear_2_502" x1="247.364" y1="77.3308" x2="247.364" y2="0.123752" gradientUnits="userSpaceOnUse">
<stop stop-color="#3881A2"/>
<stop offset="1" stop-color="#50ACB7"/>
</linearGradient>
<linearGradient id="paint5_linear_2_502" x1="166.433" y1="77.3308" x2="166.433" y2="0.123752" gradientUnits="userSpaceOnUse">
<stop stop-color="#3881A2"/>
<stop offset="1" stop-color="#50ACB7"/>
</linearGradient>
<linearGradient id="paint6_linear_2_502" x1="345.998" y1="6.96329" x2="296.396" y2="6.96329" gradientUnits="userSpaceOnUse">
<stop stop-color="#3881A2"/>
<stop offset="1" stop-color="#50ACB7"/>
</linearGradient>
<linearGradient id="paint7_linear_2_502" x1="345.998" y1="70.3674" x2="296.396" y2="70.3674" gradientUnits="userSpaceOnUse">
<stop stop-color="#3881A2"/>
<stop offset="1" stop-color="#50ACB7"/>
</linearGradient>
<linearGradient id="paint8_linear_2_502" x1="322.028" y1="38.494" x2="296.396" y2="38.494" gradientUnits="userSpaceOnUse">
<stop stop-color="#3881A2"/>
<stop offset="1" stop-color="#50ACB7"/>
</linearGradient>
</defs>
</svg>
