<svg width="179" height="60" viewBox="0 0 179 60" fill="none" xmlns="http://www.w3.org/2000/svg">
<path d="M16.6387 15.1758V21.3855H18.7576V17.2836C18.0216 16.6233 17.3225 15.9118 16.6387 15.1758Z" fill="#4382E9"/>
<path d="M36.4554 17.3496V21.5355H38.6988V15.1758C37.9596 15.9095 37.2153 16.6381 36.4554 17.3496Z" fill="#4382E9"/>
<path d="M36.412 39.9078V47.8165H36.4042C36.2405 52.4056 32.3943 56.0899 27.687 56.0899C22.9798 56.0899 19.1336 52.4056 18.9699 47.8165H18.9621V39.9078H16.7343V47.5123C16.7343 53.4499 21.6474 58.2801 27.687 58.2801C33.7266 58.2801 38.6398 53.4499 38.6398 47.5123V39.9078H36.412Z" fill="#4382E9"/>
<path d="M18.882 39.4288H12.7748V39.3665H11.03C6.18518 39.3665 2.24348 35.4248 2.24348 30.58C2.24348 25.7352 6.18518 21.7936 11.03 21.7936H18.7573V19.5501H11.03C4.94777 19.5501 0 24.4978 0 30.58C0 36.6622 4.94777 41.61 11.03 41.61H18.882V39.4288Z" fill="#4382E9"/>
<path d="M44.3064 19.5501H36.4544V21.7936H44.3064C49.1512 21.7936 53.0929 25.7352 53.0929 30.58C53.0929 35.4248 49.2015 39.5544 44.3567 39.5544H36.4549V41.61H44.3068C50.389 41.61 55.3368 36.6622 55.3368 30.58C55.3368 24.4978 50.3886 19.5501 44.3064 19.5501Z" fill="#4382E9"/>
<path d="M18.7274 14.239C13.8604 9.60079 17.7331 1.50808 24.3095 1.94622L25.6549 2.03582C26.1971 2.07194 26.6075 2.54074 26.5714 3.08292C26.5353 3.62509 26.0664 4.03538 25.5243 3.99934L24.1788 3.90974C19.3065 3.58521 16.6459 9.537 20.0851 12.8145C20.1348 12.8617 20.185 12.9083 20.2362 12.9543L20.3926 13.091L20.4168 13.1124L28.1438 20.1319C28.546 20.4973 28.5757 21.1196 28.2104 21.5218C27.845 21.924 27.2227 21.9537 26.8205 21.5883L19.1033 14.5777C18.9742 14.4675 18.849 14.3547 18.7281 14.2397L18.7274 14.239Z" fill="#4382E9"/>
<path d="M31.9234 1.737C38.4997 1.29885 42.3725 9.39157 37.5055 14.0297L37.5047 14.0305C37.3852 14.1441 37.2616 14.2554 37.1341 14.3643L29.4124 21.3791C29.0102 21.7445 28.3879 21.7148 28.0225 21.3126C27.6571 20.9103 27.6871 20.2881 28.0893 19.9227L35.816 12.9031C35.824 12.8959 35.8323 12.8888 35.8405 12.8817C35.9462 12.7919 36.049 12.6994 36.1487 12.6045C39.56 9.35251 36.9675 3.46878 32.1681 3.69402L32.0543 3.70051L30.7088 3.79011C30.1666 3.82621 29.6978 3.41589 29.6617 2.87369C29.6256 2.33149 30.036 1.86269 30.5781 1.8266L31.9234 1.737Z" fill="#4382E9"/>
<path d="M24.4731 10.7134C25.0316 10.1549 25.0316 9.24947 24.4731 8.69102C23.9147 8.13257 23.0093 8.13257 22.4508 8.69102C21.8924 9.24947 21.8924 10.1549 22.4508 10.7134C23.0093 11.2718 23.9147 11.2718 24.4731 10.7134Z" fill="#4382E9"/>
<path d="M29.1771 10.7134C29.7355 10.1549 29.7355 9.24947 29.1771 8.69102C28.6186 8.13257 27.7132 8.13257 27.1547 8.69102C26.5963 9.24947 26.5963 10.1549 27.1547 10.7134C27.7132 11.2718 28.6186 11.2718 29.1771 10.7134Z" fill="#4382E9"/>
<path d="M33.881 10.7134C34.4394 10.1549 34.4394 9.24947 33.881 8.69102C33.3225 8.13257 32.4171 8.13257 31.8586 8.69102C31.3002 9.24947 31.3002 10.1549 31.8586 10.7134C32.4171 11.2718 33.3225 11.2718 33.881 10.7134Z" fill="#4382E9"/>
<path d="M27.1571 33.5482V20.8289H29.2769V33.5482C29.2769 36.8654 31.9661 39.5545 35.2833 39.5545H37.9331V41.6744H35.2833C30.7953 41.6744 27.1571 38.0361 27.1571 33.5482Z" fill="#4382E9"/>
<path d="M65.9268 13.3102H69.1809L74.929 24.5927L80.6297 13.3102H83.8838V29.9371H81.2948L81.271 17.2294L75.8079 28.2031H74.0264L68.5158 17.2294V29.9371H65.9268V13.3102ZM88.2645 13.3102H100.141V15.7092H91.0673V20.3885H99.1907V22.7638H91.0673V27.538H100.426V29.9371H88.2645V13.3102ZM110.669 13.3102C111.92 13.3102 113.068 13.516 114.113 13.9277C115.158 14.3395 116.061 14.9174 116.821 15.6617C117.597 16.4059 118.199 17.2848 118.626 18.2982C119.054 19.3117 119.268 20.4202 119.268 21.6236C119.268 22.8271 119.054 23.9356 118.626 24.949C118.199 25.9466 117.597 26.8255 116.821 27.5856C116.045 28.3298 115.127 28.9078 114.066 29.3195C113.005 29.7312 111.849 29.9371 110.598 29.9371H103.852V13.3102H110.669ZM110.74 27.538C111.548 27.538 112.292 27.3955 112.973 27.1105C113.67 26.8255 114.272 26.4217 114.778 25.8991C115.301 25.3607 115.705 24.7352 115.99 24.0226C116.291 23.2942 116.441 22.5025 116.441 21.6474C116.441 20.7764 116.291 19.9847 115.99 19.2721C115.689 18.5437 115.277 17.9103 114.755 17.3719C114.232 16.8335 113.615 16.4218 112.902 16.1367C112.205 15.8517 111.445 15.7092 110.622 15.7092H106.655V27.538H110.74ZM122.27 13.3102H125.073V29.9371H122.27V13.3102ZM136.658 13.3102C137.814 13.3102 138.804 13.4764 139.627 13.809C140.467 14.1415 141.108 14.6166 141.551 15.2341C142.011 15.8517 142.24 16.596 142.24 17.4669C142.24 18.4012 141.979 19.2008 141.456 19.8659C140.934 20.531 140.221 20.9665 139.319 21.1723C140.427 21.3623 141.298 21.8295 141.931 22.5737C142.565 23.318 142.881 24.2523 142.881 25.3766C142.881 26.3267 142.636 27.1422 142.145 27.8231C141.654 28.504 140.957 29.0266 140.055 29.3908C139.152 29.755 138.075 29.9371 136.824 29.9371H129.437V13.3102H136.658ZM136.516 20.2222C137.402 20.2222 138.099 20.0243 138.606 19.6284C139.113 19.2167 139.366 18.6466 139.366 17.9182C139.366 17.2056 139.113 16.6593 138.606 16.2793C138.099 15.8834 137.402 15.6934 136.516 15.7092H132.24V20.2222H136.516ZM136.516 27.538C137.608 27.5539 138.463 27.348 139.081 26.9205C139.699 26.4771 140.007 25.8516 140.007 25.044C140.007 24.2839 139.699 23.6901 139.081 23.2626C138.463 22.8192 137.608 22.6054 136.516 22.6212H132.24V27.538H136.516ZM153.643 13.1439C154.878 13.1439 156.026 13.3577 157.087 13.7852C158.164 14.2128 159.098 14.8145 159.89 15.5904C160.697 16.3664 161.323 17.269 161.766 18.2982C162.225 19.3117 162.455 20.4122 162.455 21.5999C162.455 22.7875 162.225 23.9039 161.766 24.949C161.323 25.9783 160.697 26.8809 159.89 27.6568C159.098 28.4327 158.164 29.0424 157.087 29.4858C156.026 29.9133 154.878 30.1271 153.643 30.1271C152.408 30.1271 151.252 29.9133 150.175 29.4858C149.114 29.0424 148.18 28.4327 147.372 27.6568C146.58 26.8809 145.955 25.9783 145.496 24.949C145.052 23.9039 144.83 22.7875 144.83 21.5999C144.83 20.4122 145.052 19.3038 145.496 18.2745C145.955 17.2452 146.58 16.3505 147.372 15.5904C148.18 14.8145 149.114 14.2128 150.175 13.7852C151.252 13.3577 152.408 13.1439 153.643 13.1439ZM153.666 15.5192C152.843 15.5192 152.067 15.6775 151.339 15.9942C150.626 16.2951 149.993 16.7226 149.438 17.2769C148.884 17.8311 148.449 18.4803 148.132 19.2246C147.831 19.953 147.681 20.7448 147.681 21.5999C147.681 22.455 147.839 23.2546 148.156 23.9989C148.473 24.7431 148.908 25.4003 149.462 25.9704C150.016 26.5246 150.65 26.9601 151.362 27.2768C152.091 27.5935 152.859 27.7518 153.666 27.7518C154.474 27.7518 155.234 27.5935 155.947 27.2768C156.675 26.9601 157.309 26.5246 157.847 25.9704C158.385 25.4003 158.805 24.7431 159.106 23.9989C159.423 23.2546 159.581 22.455 159.581 21.5999C159.581 20.7448 159.423 19.953 159.106 19.2246C158.805 18.4803 158.385 17.8311 157.847 17.2769C157.309 16.7226 156.675 16.2951 155.947 15.9942C155.234 15.6775 154.474 15.5192 153.666 15.5192ZM163.141 13.3102H176.467V15.7092H171.194V29.9371H168.391V15.7092H163.141V13.3102Z" fill="#4382E9"/>
<path d="M79.9427 42.1512H81.1944L85.9725 52.8369H84.6597L80.538 43.4029L76.4469 52.8369H75.1646L79.9427 42.1512ZM77.2712 49.0053H83.759V50.0586H77.2712V49.0053ZM87.6635 42.1512H88.8847V52.8369H87.6635V42.1512ZM95.9091 44.0746C95.9091 43.4945 96.0262 43.006 96.2602 42.6091C96.5045 42.2122 96.8251 41.912 97.222 41.7085C97.6189 41.4948 98.0361 41.393 98.4737 41.4032C98.7078 41.4032 98.9419 41.4388 99.1759 41.51C99.4202 41.5711 99.6441 41.6576 99.8476 41.7696L99.5576 42.6855C99.4049 42.6142 99.237 42.5532 99.0538 42.5023C98.8808 42.4412 98.6976 42.4107 98.5042 42.4107C98.2498 42.4107 98.0107 42.4718 97.7868 42.5939C97.5731 42.7058 97.4001 42.8788 97.2678 43.1129C97.1456 43.3368 97.0846 43.6116 97.0846 43.9372V52.8369H95.9091V44.0746ZM94.8711 45.0516H99.3896V45.937H94.8711V45.0516ZM103.851 44.7768C104.645 44.7768 105.347 44.9498 105.958 45.2958C106.579 45.6317 107.062 46.1049 107.408 46.7155C107.754 47.3261 107.927 48.0283 107.927 48.8221C107.927 49.6159 107.754 50.3181 107.408 50.9287C107.062 51.5394 106.579 52.0177 105.958 52.3637C105.347 52.6995 104.645 52.8674 103.851 52.8674C103.057 52.8674 102.35 52.6995 101.729 52.3637C101.119 52.0177 100.64 51.5394 100.294 50.9287C99.9483 50.3181 99.7753 49.6159 99.7753 48.8221C99.7753 48.0283 99.9483 47.3261 100.294 46.7155C100.64 46.1049 101.119 45.6317 101.729 45.2958C102.35 44.9498 103.057 44.7768 103.851 44.7768ZM103.851 45.7691C103.291 45.7691 102.793 45.9014 102.355 46.166C101.918 46.4204 101.577 46.7766 101.332 47.2345C101.088 47.6925 100.966 48.2217 100.966 48.8221C100.966 49.4327 101.088 49.9721 101.332 50.4403C101.577 50.8982 101.918 51.2595 102.355 51.5241C102.793 51.7785 103.291 51.9057 103.851 51.9057C104.421 51.9057 104.92 51.7785 105.347 51.5241C105.785 51.2595 106.126 50.8982 106.37 50.4403C106.614 49.9721 106.736 49.4327 106.736 48.8221C106.736 48.2217 106.614 47.6925 106.37 47.2345C106.126 46.7766 105.785 46.4204 105.347 46.166C104.92 45.9014 104.421 45.7691 103.851 45.7691ZM114.097 45.8607C113.496 45.8505 112.977 45.9777 112.54 46.2423C112.112 46.4967 111.781 46.858 111.547 47.3261C111.313 47.7841 111.196 48.3235 111.196 48.9443L110.784 48.8985C110.784 48.0232 110.916 47.2803 111.181 46.6697C111.446 46.0591 111.827 45.591 112.326 45.2653C112.825 44.9397 113.415 44.7768 114.097 44.7768V45.8607ZM110.021 44.8074H111.212V52.8369H110.021V44.8074ZM125.671 48.181C125.671 47.4483 125.468 46.8783 125.061 46.4713C124.664 46.054 124.109 45.8454 123.397 45.8454C122.542 45.8556 121.875 46.1456 121.397 46.7155C120.919 47.2752 120.68 48.0029 120.68 48.8985H120.267C120.267 47.9622 120.41 47.1938 120.695 46.5934C120.98 45.9828 121.387 45.5299 121.916 45.2348C122.456 44.9295 123.086 44.7768 123.809 44.7768C124.45 44.7768 125 44.904 125.458 45.1585C125.916 45.4129 126.262 45.7742 126.496 46.2423C126.74 46.7003 126.862 47.2549 126.862 47.9062V52.8369H125.671V48.181ZM119.489 41.51H120.68V52.8369H119.489V41.51ZM135.382 48.3489C135.361 47.8095 135.234 47.3465 135 46.9598C134.776 46.5629 134.466 46.2576 134.069 46.0438C133.682 45.8301 133.224 45.7233 132.695 45.7233C132.135 45.7233 131.642 45.8505 131.214 46.1049C130.797 46.3593 130.466 46.7155 130.222 47.1735C129.978 47.6314 129.856 48.1657 129.856 48.7763C129.856 49.4073 129.978 49.9619 130.222 50.4403C130.477 50.9084 130.828 51.2748 131.275 51.5394C131.723 51.804 132.232 51.9363 132.802 51.9363C133.82 51.9363 134.649 51.5902 135.29 50.8982L135.947 51.5546C135.56 51.9719 135.092 52.2975 134.542 52.5316C133.993 52.7555 133.387 52.8674 132.726 52.8674C131.932 52.8674 131.23 52.6995 130.619 52.3637C130.019 52.0177 129.55 51.5394 129.215 50.9287C128.879 50.3181 128.711 49.6159 128.711 48.8221C128.711 48.0283 128.879 47.3312 129.215 46.7308C129.55 46.1202 130.019 45.6469 130.619 45.3111C131.23 44.9651 131.922 44.787 132.695 44.7768C133.56 44.7768 134.278 44.9651 134.848 45.3416C135.417 45.708 135.835 46.227 136.099 46.8987C136.374 47.5602 136.486 48.3387 136.435 49.2343H129.642V48.3489H135.382ZM140.967 49.0664C140.296 49.0664 139.787 49.1783 139.441 49.4022C139.095 49.6261 138.922 49.967 138.922 50.425C138.922 50.883 139.085 51.2544 139.41 51.5394C139.746 51.8141 140.199 51.9515 140.769 51.9515C141.237 51.9515 141.659 51.8752 142.036 51.7225C142.412 51.5699 142.723 51.3511 142.967 51.0661C143.221 50.7812 143.394 50.4352 143.486 50.0281L143.791 50.9898C143.506 51.631 143.084 52.1093 142.524 52.4248C141.965 52.7301 141.303 52.8827 140.54 52.8827C139.99 52.8827 139.507 52.7759 139.09 52.5621C138.683 52.3484 138.367 52.0584 138.143 51.692C137.919 51.3256 137.807 50.9135 137.807 50.4555C137.807 49.7635 138.072 49.2139 138.601 48.8069C139.13 48.3998 139.868 48.1912 140.815 48.181H143.669V49.0664H140.967ZM143.456 47.6467C143.456 47.0361 143.272 46.5629 142.906 46.227C142.55 45.8912 142.015 45.7233 141.303 45.7233C140.855 45.7233 140.423 45.8047 140.006 45.9675C139.588 46.1303 139.171 46.3593 138.754 46.6545L138.25 45.8759C138.596 45.6419 138.932 45.4434 139.258 45.2806C139.583 45.1177 139.929 44.9956 140.296 44.9142C140.662 44.8226 141.074 44.7768 141.532 44.7768C142.529 44.7768 143.293 45.0262 143.822 45.5248C144.351 46.0133 144.621 46.685 144.631 47.5398L144.646 52.8369H143.486L143.456 47.6467ZM147.381 41.51H148.572V52.8369H147.381V41.51ZM153.004 50.425C153.004 50.9338 153.095 51.3002 153.279 51.5241C153.462 51.7378 153.726 51.8447 154.072 51.8447C154.276 51.8345 154.485 51.7989 154.698 51.7378C154.912 51.6666 155.131 51.5597 155.355 51.4172L155.691 52.2874C155.416 52.4705 155.121 52.6181 154.805 52.7301C154.5 52.8318 154.189 52.8827 153.874 52.8827C153.477 52.8827 153.126 52.8064 152.821 52.6537C152.515 52.4909 152.271 52.2416 152.088 51.9057C151.915 51.5699 151.828 51.1374 151.828 50.6082V42.9755H153.004V50.425ZM150.668 45.0516H155.553V45.937H150.668V45.0516ZM163.73 48.181C163.73 47.4483 163.527 46.8783 163.12 46.4713C162.723 46.054 162.168 45.8454 161.456 45.8454C160.601 45.8556 159.934 46.1456 159.456 46.7155C158.978 47.2752 158.739 48.0029 158.739 48.8985H158.326C158.326 47.9622 158.469 47.1938 158.754 46.5934C159.039 45.9828 159.446 45.5299 159.975 45.2348C160.514 44.9295 161.145 44.7768 161.868 44.7768C162.509 44.7768 163.059 44.904 163.517 45.1585C163.975 45.4129 164.321 45.7742 164.555 46.2423C164.799 46.7003 164.921 47.2549 164.921 47.9062V52.8369H163.73V48.181ZM157.548 41.51H158.739V52.8369H157.548V41.51Z" fill="#4382E9"/>
</svg>
