<svg width="343" height="443" viewBox="0 0 343 443" fill="none" xmlns="http://www.w3.org/2000/svg">
<path d="M114.871 71.9727V103.853H125.749V82.794C121.971 79.4042 118.382 75.7512 114.871 71.9727Z" fill="#00C999"/>
<path d="M216.609 80.7579V103.854H228.128V69.5977C224.332 73.3644 220.511 77.105 216.609 80.7579Z" fill="#00C999"/>
<path d="M216.609 194.07V235.662H216.568C215.722 259.796 195.836 279.172 171.499 279.172C147.161 279.172 127.276 259.796 126.429 235.662H126.389V194.07H114.871V234.062C114.871 265.288 140.273 290.69 171.499 290.69C202.725 290.69 228.127 265.288 228.127 234.062V194.07H216.609Z" fill="#00C999"/>
<path d="M126.385 194.065H95.0311V193.745H86.0732C61.2 193.745 40.9633 173.509 40.9633 148.635C40.9633 123.762 61.2 103.526 86.0732 103.526H125.745V92.0078H86.0732C54.8471 92.0078 29.4453 117.41 29.4453 148.635C29.4453 179.861 54.8471 205.263 86.0732 205.263H126.385V194.065Z" fill="#00C999"/>
<path d="M256.91 92.0078H216.598V103.526H256.91C281.783 103.526 302.019 123.762 302.019 148.635C302.019 173.509 281.783 193.745 256.91 193.745H242.194V194.065H216.6V205.263H256.912C288.138 205.263 313.54 179.861 313.54 148.635C313.54 117.41 288.136 92.0078 256.91 92.0078Z" fill="#00C999"/>
<path d="M173.246 98.0938V162.224C173.246 181.934 187.156 197.911 206.866 197.911L254.998 198.551" stroke="#00C999" stroke-width="8.48461" stroke-miterlimit="10" stroke-linecap="round" stroke-linejoin="round"/>
<path d="M160.821 7.1263L153.913 6.66643C124.524 4.70844 107.753 40.7606 129.076 61.0801C129.654 61.6301 130.251 62.1682 130.868 62.692L170.537 98.73" stroke="#00C999" stroke-width="11.0424" stroke-miterlimit="10" stroke-linecap="round" stroke-linejoin="round"/>
<path d="M186.771 6.05599L193.679 5.59612C223.068 3.63813 239.839 39.6903 218.516 60.0098C217.938 60.5597 217.341 61.0978 216.724 61.6217L177.055 97.6596" stroke="#00C999" stroke-width="11.0424" stroke-miterlimit="10" stroke-linecap="round" stroke-linejoin="round"/>
<path d="M155.096 46.6347C157.963 43.7676 157.963 39.1191 155.096 36.2519C152.229 33.3848 147.58 33.3848 144.713 36.2519C141.846 39.1191 141.846 43.7676 144.713 46.6348C147.58 49.5019 152.229 49.5019 155.096 46.6347Z" fill="white"/>
<path d="M179.244 46.6347C182.111 43.7676 182.111 39.1191 179.244 36.2519C176.377 33.3848 171.728 33.3848 168.861 36.2519C165.994 39.1191 165.994 43.7676 168.861 46.6348C171.728 49.5019 176.377 49.5019 179.244 46.6347Z" fill="white"/>
<path d="M203.396 46.6347C206.264 43.7676 206.264 39.1191 203.396 36.2519C200.529 33.3848 195.881 33.3848 193.014 36.2519C190.147 39.1191 190.146 43.7676 193.014 46.6348C195.881 49.5019 200.529 49.5019 203.396 46.6347Z" fill="white"/>
<path d="M12.0614 320.322H21.6189L38.5015 353.46L55.2445 320.322H64.802V369.156H57.1979L57.1281 331.833L41.0827 364.064H35.8505L19.6656 331.833V369.156H12.0614V320.322ZM77.6684 320.322H112.55V327.368H85.9004V341.112H109.759V348.088H85.9004V362.11H113.387V369.156H77.6684V320.322ZM143.472 320.322C147.146 320.322 150.518 320.927 153.588 322.136C156.657 323.345 159.308 325.043 161.541 327.229C163.819 329.415 165.587 331.996 166.843 334.973C168.098 337.949 168.726 341.205 168.726 344.739C168.726 348.274 168.098 351.53 166.843 354.506C165.587 357.436 163.819 360.017 161.541 362.25C159.262 364.436 156.564 366.133 153.448 367.342C150.332 368.552 146.937 369.156 143.263 369.156H123.45V320.322H143.472ZM143.681 362.11C146.053 362.11 148.239 361.692 150.239 360.854C152.285 360.017 154.053 358.831 155.541 357.297C157.076 355.715 158.262 353.878 159.099 351.785C159.983 349.646 160.424 347.321 160.424 344.809C160.424 342.251 159.983 339.926 159.099 337.833C158.215 335.693 157.006 333.833 155.471 332.252C153.936 330.67 152.123 329.461 150.03 328.624C147.983 327.787 145.751 327.368 143.333 327.368H131.682V362.11H143.681ZM177.543 320.322H185.775V369.156H177.543V320.322ZM219.803 320.322C223.198 320.322 226.105 320.811 228.523 321.787C230.988 322.764 232.872 324.159 234.174 325.973C235.523 327.787 236.197 329.973 236.197 332.531C236.197 335.275 235.43 337.623 233.895 339.577C232.36 341.53 230.267 342.809 227.616 343.414C230.872 343.972 233.43 345.344 235.29 347.53C237.15 349.716 238.081 352.46 238.081 355.762C238.081 358.552 237.36 360.948 235.918 362.947C234.476 364.947 232.43 366.482 229.779 367.552C227.128 368.621 223.965 369.156 220.291 369.156H198.595V320.322H219.803ZM219.384 340.623C221.989 340.623 224.035 340.042 225.523 338.879C227.012 337.67 227.756 335.996 227.756 333.856C227.756 331.763 227.012 330.159 225.523 329.043C224.035 327.88 221.989 327.322 219.384 327.368H206.827V340.623H219.384ZM219.384 362.11C222.593 362.157 225.105 361.552 226.919 360.296C228.732 358.994 229.639 357.157 229.639 354.785C229.639 352.553 228.732 350.809 226.919 349.553C225.105 348.251 222.593 347.623 219.384 347.669H206.827V362.11H219.384ZM269.687 319.834C273.315 319.834 276.686 320.462 279.803 321.718C282.965 322.973 285.709 324.741 288.035 327.02C290.406 329.298 292.244 331.949 293.546 334.973C294.895 337.949 295.569 341.181 295.569 344.67C295.569 348.158 294.895 351.437 293.546 354.506C292.244 357.529 290.406 360.18 288.035 362.459C285.709 364.738 282.965 366.529 279.803 367.831C276.686 369.086 273.315 369.714 269.687 369.714C266.059 369.714 262.664 369.086 259.502 367.831C256.386 366.529 253.642 364.738 251.27 362.459C248.944 360.18 247.107 357.529 245.758 354.506C244.456 351.437 243.805 348.158 243.805 344.67C243.805 341.181 244.456 337.926 245.758 334.903C247.107 331.88 248.944 329.252 251.27 327.02C253.642 324.741 256.386 322.973 259.502 321.718C262.664 320.462 266.059 319.834 269.687 319.834ZM269.757 326.81C267.338 326.81 265.059 327.275 262.92 328.206C260.827 329.089 258.967 330.345 257.339 331.973C255.711 333.601 254.432 335.507 253.502 337.693C252.618 339.833 252.177 342.158 252.177 344.67C252.177 347.181 252.642 349.53 253.572 351.716C254.502 353.901 255.781 355.832 257.409 357.506C259.037 359.134 260.897 360.413 262.99 361.343C265.129 362.273 267.385 362.738 269.757 362.738C272.129 362.738 274.361 362.273 276.454 361.343C278.593 360.413 280.454 359.134 282.035 357.506C283.616 355.832 284.849 353.901 285.732 351.716C286.663 349.53 287.128 347.181 287.128 344.67C287.128 342.158 286.663 339.833 285.732 337.693C284.849 335.507 283.616 333.601 282.035 331.973C280.454 330.345 278.593 329.089 276.454 328.206C274.361 327.275 272.129 326.81 269.757 326.81ZM297.585 320.322H336.722V327.368H321.235V369.156H313.003V327.368H297.585V320.322Z" fill="white"/>
<path d="M84.7732 391.266H87.4427L97.6328 414.055H94.8329L86.0428 393.935L77.3178 414.055H74.5832L84.7732 391.266ZM79.0759 405.883H92.9121V408.13H79.0759V405.883ZM101.239 391.266H103.844V414.055H101.239V391.266ZM118.824 395.368C118.824 394.13 119.074 393.089 119.573 392.242C120.094 391.396 120.778 390.755 121.624 390.321C122.471 389.866 123.36 389.649 124.294 389.67C124.793 389.67 125.292 389.746 125.791 389.898C126.312 390.028 126.79 390.213 127.224 390.452L126.605 392.405C126.28 392.253 125.922 392.123 125.531 392.014C125.162 391.884 124.771 391.819 124.359 391.819C123.816 391.819 123.306 391.949 122.829 392.21C122.373 392.448 122.004 392.817 121.722 393.317C121.461 393.794 121.331 394.38 121.331 395.075V414.055H118.824V395.368ZM116.611 397.451H126.247V399.339H116.611V397.451ZM135.762 396.865C137.455 396.865 138.953 397.234 140.255 397.972C141.579 398.688 142.61 399.698 143.348 401C144.086 402.302 144.455 403.8 144.455 405.492C144.455 407.185 144.086 408.683 143.348 409.985C142.61 411.287 141.579 412.308 140.255 413.045C138.953 413.762 137.455 414.12 135.762 414.12C134.069 414.12 132.561 413.762 131.237 413.045C129.935 412.308 128.915 411.287 128.177 409.985C127.439 408.683 127.07 407.185 127.07 405.492C127.07 403.8 127.439 402.302 128.177 401C128.915 399.698 129.935 398.688 131.237 397.972C132.561 397.234 134.069 396.865 135.762 396.865ZM135.762 398.981C134.568 398.981 133.505 399.263 132.572 399.828C131.638 400.37 130.911 401.13 130.39 402.107C129.869 403.083 129.609 404.212 129.609 405.492C129.609 406.795 129.869 407.945 130.39 408.943C130.911 409.92 131.638 410.691 132.572 411.255C133.505 411.797 134.568 412.069 135.762 412.069C136.978 412.069 138.041 411.797 138.953 411.255C139.886 410.691 140.613 409.92 141.134 408.943C141.655 407.945 141.915 406.795 141.915 405.492C141.915 404.212 141.655 403.083 141.134 402.107C140.613 401.13 139.886 400.37 138.953 399.828C138.041 399.263 136.978 398.981 135.762 398.981ZM157.612 399.177C156.332 399.155 155.225 399.426 154.292 399.991C153.38 400.533 152.675 401.304 152.176 402.302C151.676 403.279 151.427 404.429 151.427 405.753L150.548 405.655C150.548 403.789 150.83 402.204 151.394 400.902C151.959 399.6 152.773 398.601 153.836 397.907C154.899 397.212 156.158 396.865 157.612 396.865V399.177ZM148.92 396.93H151.459V414.055H148.92V396.93ZM182.297 404.125C182.297 402.562 181.863 401.347 180.995 400.479C180.149 399.589 178.966 399.144 177.447 399.144C175.624 399.166 174.202 399.784 173.182 401C172.162 402.193 171.652 403.745 171.652 405.655H170.773C170.773 403.658 171.077 402.02 171.684 400.739C172.292 399.437 173.16 398.471 174.289 397.842C175.439 397.191 176.785 396.865 178.326 396.865C179.693 396.865 180.865 397.136 181.842 397.679C182.818 398.222 183.556 398.992 184.056 399.991C184.576 400.967 184.837 402.15 184.837 403.539V414.055H182.297V404.125ZM169.112 389.898H171.652V414.055H169.112V389.898ZM203.007 404.483C202.963 403.333 202.692 402.345 202.193 401.521C201.715 400.674 201.053 400.023 200.207 399.567C199.382 399.112 198.405 398.884 197.277 398.884C196.083 398.884 195.03 399.155 194.119 399.698C193.229 400.24 192.524 401 192.003 401.976C191.482 402.953 191.221 404.093 191.221 405.395C191.221 406.74 191.482 407.923 192.003 408.943C192.545 409.942 193.294 410.723 194.249 411.287C195.204 411.852 196.289 412.134 197.505 412.134C199.675 412.134 201.444 411.396 202.811 409.92L204.211 411.32C203.386 412.21 202.388 412.904 201.216 413.404C200.044 413.881 198.753 414.12 197.342 414.12C195.649 414.12 194.151 413.762 192.849 413.045C191.569 412.308 190.57 411.287 189.854 409.985C189.138 408.683 188.78 407.185 188.78 405.492C188.78 403.8 189.138 402.313 189.854 401.032C190.57 399.73 191.569 398.721 192.849 398.005C194.151 397.267 195.627 396.887 197.277 396.865C199.122 396.865 200.652 397.267 201.867 398.07C203.083 398.851 203.972 399.958 204.537 401.39C205.123 402.801 205.362 404.462 205.253 406.371H190.766V404.483H203.007ZM214.919 406.013C213.486 406.013 212.401 406.252 211.663 406.73C210.925 407.207 210.556 407.934 210.556 408.911C210.556 409.888 210.903 410.68 211.598 411.287C212.314 411.873 213.28 412.166 214.495 412.166C215.494 412.166 216.394 412.004 217.197 411.678C218.001 411.353 218.662 410.886 219.183 410.278C219.726 409.67 220.095 408.933 220.29 408.064L220.941 410.115C220.334 411.483 219.433 412.503 218.239 413.176C217.046 413.827 215.635 414.152 214.007 414.152C212.835 414.152 211.804 413.924 210.914 413.469C210.046 413.013 209.373 412.394 208.896 411.613C208.418 410.832 208.179 409.953 208.179 408.976C208.179 407.5 208.744 406.328 209.872 405.46C211.001 404.592 212.575 404.147 214.593 404.125H220.681V406.013H214.919ZM220.225 402.986C220.225 401.683 219.834 400.674 219.053 399.958C218.294 399.242 217.154 398.884 215.635 398.884C214.68 398.884 213.757 399.057 212.868 399.405C211.978 399.752 211.088 400.24 210.198 400.87L209.124 399.209C209.862 398.71 210.578 398.287 211.272 397.94C211.967 397.592 212.705 397.332 213.486 397.158C214.267 396.963 215.146 396.865 216.123 396.865C218.25 396.865 219.878 397.397 221.007 398.46C222.135 399.502 222.71 400.935 222.732 402.758L222.765 414.055H220.29L220.225 402.986ZM228.597 389.898H231.136V414.055H228.597V389.898ZM240.589 408.911C240.589 409.996 240.784 410.777 241.175 411.255C241.565 411.711 242.13 411.939 242.868 411.939C243.302 411.917 243.747 411.841 244.202 411.711C244.658 411.559 245.125 411.331 245.602 411.027L246.318 412.883C245.732 413.273 245.103 413.588 244.43 413.827C243.779 414.044 243.117 414.152 242.444 414.152C241.598 414.152 240.849 413.99 240.198 413.664C239.547 413.317 239.026 412.785 238.635 412.069C238.266 411.353 238.082 410.43 238.082 409.302V393.024H240.589V408.911ZM235.608 397.451H246.025V399.339H235.608V397.451ZM263.465 404.125C263.465 402.562 263.031 401.347 262.163 400.479C261.316 399.589 260.133 399.144 258.614 399.144C256.791 399.166 255.369 399.784 254.349 401C253.329 402.193 252.819 403.745 252.819 405.655H251.94C251.94 403.658 252.244 402.02 252.852 400.739C253.459 399.437 254.327 398.471 255.456 397.842C256.606 397.191 257.952 396.865 259.493 396.865C260.86 396.865 262.032 397.136 263.009 397.679C263.986 398.222 264.724 398.992 265.223 399.991C265.744 400.967 266.004 402.15 266.004 403.539V414.055H263.465V404.125ZM250.28 389.898H252.819V414.055H250.28V389.898Z" fill="#00C999"/>
</svg>
